<?xml version="1.0" standalone="no"?>
<!DOCTYPE svg PUBLIC "-//W3C//DTD SVG 20010904//EN"
 "http://www.w3.org/TR/2001/REC-SVG-20010904/DTD/svg10.dtd">
<svg version="1.0" xmlns="http://www.w3.org/2000/svg"
 width="120.000000pt" height="120.000000pt" viewBox="0 0 120.000000 120.000000"
 preserveAspectRatio="xMidYMid meet">
<metadata>
Created by potrace 1.11, written by Peter Selinger 2001-2013
</metadata>
<g transform="translate(0.000000,120.000000) scale(0.100000,-0.100000)"
fill="#000000" stroke="none">
<path d="M566 1007 c-16 -18 -52 -59 -81 -92 -68 -76 -93 -105 -180 -204 l-70
-79 -5 170 -5 171 -26 -32 c-35 -42 -126 -145 -166 -189 l-33 -35 0 -179 c0
-99 4 -178 9 -176 4 2 42 44 82 93 40 50 84 101 96 115 13 14 23 28 23 32 0 5
4 8 9 8 5 0 9 -98 10 -226 0 -125 1 -228 3 -229 2 -2 24 15 49 38 25 23 92 85
149 137 57 52 116 107 132 123 16 15 32 27 36 27 4 0 30 -22 58 -48 28 -26 93
-85 145 -132 51 -47 103 -94 114 -105 57 -54 53 -67 52 185 -1 126 1 230 4
230 3 0 54 -59 114 -130 59 -72 109 -130 110 -130 1 0 2 83 1 184 l-1 185 -35
38 c-72 79 -81 89 -118 132 -66 78 -70 82 -74 74 -2 -4 -4 -81 -3 -171 l1
-163 -39 43 c-21 24 -60 68 -87 98 -26 30 -59 67 -72 81 -25 28 -130 147 -138
158 -24 30 -37 30 -64 -2z"/>
</g>
</svg>
