<svg width="164" height="126" viewBox="0 0 164 126" fill="none" xmlns="http://www.w3.org/2000/svg">
<g clip-path="url(#clip0_165_182)">
<path d="M126.725 75.7515C128.548 75.7515 130.298 75.4653 132.039 75.2044C131.475 77.1571 130.895 79.1435 129.963 80.9279C129.031 83.5202 127.576 85.7675 126.128 88.0317C124.918 90.481 122.785 92.1391 121.215 94.2349C119.572 96.2717 117.331 97.6269 115.557 99.3186C113.816 101.086 111.535 101.97 109.72 103.216C107.823 104.335 106.172 105.572 104.406 106.162L99.999 108.03L96.1238 109.688L100.089 126L104.97 124.788C106.531 124.384 108.436 123.913 110.603 123.349C112.818 122.928 115.181 121.775 117.814 120.723C120.414 119.527 123.422 118.719 126.218 116.8C129.031 114.966 132.277 113.434 135.138 110.976C137.91 108.442 141.253 106.246 143.722 103.022C146.42 100.009 149.086 96.8441 151.154 93.2417C153.55 89.8076 155.177 86.0369 156.893 82.3082C158.447 78.5796 159.698 74.7667 160.72 71.0633C162.657 63.6397 163.524 56.5864 163.859 50.5515C164.137 44.5082 163.974 39.4834 163.63 35.8473C163.508 34.1303 163.279 32.4637 163.115 31.3106L162.911 29.8966L162.698 29.9471C161.244 22.9541 157.897 16.5279 153.043 11.4117C148.189 6.29555 142.028 2.69852 135.272 1.03676C128.515 -0.625011 121.44 -0.283611 114.864 2.02146C108.289 4.32652 102.481 8.50106 98.1137 14.0622C93.7462 19.6233 90.9973 26.3437 90.1848 33.446C89.3724 40.5483 90.5297 47.7423 93.5228 54.1958C96.516 60.6493 101.223 66.0985 107.098 69.9132C112.974 73.7278 119.779 75.752 126.725 75.7515ZM36.793 75.7515C38.6161 75.7515 40.3657 75.4653 42.1071 75.2044C41.543 77.1571 40.9625 79.1435 40.0305 80.9279C39.0985 83.5202 37.6432 85.7675 36.1961 88.0317C34.9861 90.481 32.8523 92.1391 31.2825 94.2349C29.6392 96.2717 27.3991 97.6268 25.625 99.3186C23.8836 101.086 21.6026 101.97 19.7876 103.216C17.8908 104.335 16.2393 105.572 14.4734 106.162L10.0667 108.03L6.19144 109.688L10.1566 126L15.0375 124.788C16.5991 124.384 18.504 123.913 20.6705 123.349C22.8861 122.928 25.2489 121.775 27.8815 120.723C30.4732 119.519 33.49 118.719 36.2861 116.792C39.0985 114.957 42.3442 113.425 45.2057 110.968C47.9773 108.434 51.3211 106.237 53.7902 103.022C56.4881 100.009 59.1534 96.8441 61.2218 93.2417C63.6173 89.8076 65.2443 86.0369 66.9612 82.3082C68.5145 78.5796 69.7654 74.7667 70.7874 71.0633C72.725 63.6397 73.5916 56.5864 73.9268 50.5515C74.2048 44.5082 74.0413 39.4834 73.6979 35.8473C73.5753 34.1303 73.3464 32.4637 73.1828 31.3106L72.9785 29.8966L72.7659 29.9471C71.3118 22.9541 67.9643 16.5279 63.1107 11.4117C58.2572 6.29555 52.0958 2.69851 45.3395 1.03675C38.5831 -0.625019 31.5078 -0.283619 24.9321 2.02145C18.3563 4.32651 12.5488 8.50105 8.18135 14.0622C3.81387 19.6233 1.06492 26.3437 0.252495 33.446C-0.559929 40.5483 0.597358 47.7423 3.59051 54.1958C6.58364 60.6493 11.2903 66.0985 17.166 69.9132C23.0418 73.7278 29.8465 75.752 36.793 75.7515Z" fill="#0057FF" fill-opacity="0.1"/>
</g>
<defs>
<clipPath id="clip0_165_182">
<rect width="164" height="126" fill="white"/>
</clipPath>
</defs>
</svg>
